#!OML:ASF H:\SpeedWalk\Project 1\Capture day 2\Session 1\male.ASF
:FULLY-SPECIFIED
:DEGREES
70
root -8.465769 17.954466 -17.982370 -1.796815 1.202218 -6.156771
lowerback 12.143586 1.643429 5.610178 
upperback 0.387647 3.228677 3.944820 
thorax -6.338227 1.473640 0.446620 
lowerneck -13.130770 0.196621 1.628661 
upperneck 18.838503 0.788540 -4.124918 
head 8.015186 0.090455 -1.554978 
rclavicle 0.000000 0.000000 
rhumerus -28.067182 -20.229209 -76.783556 
rradius 25.943379 
rwrist 1.363364 
rhand -13.420453 -10.711933 
rfingers 0.000000 
rthumb 12.687893 -40.306555 
lclavicle 0.000000 0.000000 
lhumerus -38.754576 3.391597 88.381225 
lradius 41.998644 
lwrist -10.196297 
lhand -7.954158 15.286368 
lfingers 0.000000 
lthumb 17.952946 44.477746 
rfemur -3.733606 -0.080663 31.784111 
rtibia 20.433274 
rfoot -12.014913 -7.280626 
rtoes 7.726919 
lfemur -63.883987 6.239800 -15.474752 
ltibia 101.856512 
lfoot -25.356032 -6.251088 
ltoes -8.718225 
71
root -8.465877 17.957142 -17.882305 -1.867866 1.044077 -6.286429
lowerback 12.281836 1.689550 5.806894 
upperback 0.431963 3.325290 3.936401 
thorax -6.354551 1.514506 0.307885 
lowerneck -13.113500 0.207908 1.635268 
upperneck 18.801801 0.805440 -4.142872 
head 8.000495 0.097671 -1.559818 
rclavicle 0.000000 0.000000 
rhumerus -27.794241 -19.686939 -77.078204 
rradius 26.308342 
rwrist 0.942232 
rhand -13.462087 -10.737488 
rfingers 0.000000 
rthumb 12.647733 -40.334533 
lclavicle 0.000000 0.000000 
lhumerus -38.719477 3.296682 88.391320 
lradius 42.161496 
lwrist -10.210400 
lhand -7.911727 15.294476 
lfingers 0.000000 
lthumb 17.993756 44.482113 
rfemur -3.126562 -0.020736 31.954445 
rtibia 20.125844 
rfoot -12.115882 -7.295484 
rtoes 7.524106 
lfemur -65.111890 6.113652 -15.566586 
ltibia 101.235038 
lfoot -25.532247 -6.378708 
ltoes -8.663983 
72
root -8.465203 17.947326 -17.782156 -1.933612 0.885546 -6.401223
lowerback 12.417755 1.733000 5.985001 
upperback 0.475599 3.415874 3.925737 
thorax -6.370646 1.552952 0.178073 
lowerneck -13.101561 0.221784 1.641356 
upperneck 18.769543 0.827172 -4.165893 
head 7.988435 0.106556 -1.565805 
rclavicle 0.000000 0.000000 
rhumerus -27.522542 -19.169477 -77.361898 
rradius 26.661899 
rwrist 0.559023 
rhand -13.498003 -10.760670 
rfingers 0.000000 
rthumb 12.613095 -40.359817 
lclavicle 0.000000 0.000000 
lhumerus -38.686048 3.216245 88.395598 
lradius 42.301467 
lwrist -10.216043 
lhand -7.880785 15.315063 
lfingers 0.000000 
lthumb 18.023521 44.499966 
rfemur -2.550556 0.036387 32.107491 
rtibia 19.864439 
rfoot -12.234314 -7.300379 
rtoes 7.318423 
lfemur -66.333319 5.950384 -15.646144 
ltibia 100.574959 
lfoot -25.641247 -6.498921 
ltoes -8.583024 
73
root -8.464303 17.936467 -17.682323 -1.995408 0.728631 -6.498678
lowerback 12.551461 1.773848 6.143188 
upperback 0.519186 3.500172 3.912122 
thorax -6.386102 1.588904 0.057212 
lowerneck -13.099863 0.237279 1.645712 
upperneck 18.743611 0.852345 -4.192345 
head 7.980472 0.116455 -1.572380 
rclavicle 0.000000 0.000000 
rhumerus -27.251915 -18.680325 -77.633688 
rradius 27.003149 
rwrist 0.207778 
rhand -13.527087 -10.783586 
rfingers 0.000000 
rthumb 12.585046 -40.384452 
lclavicle 0.000000 0.000000 
lhumerus -38.653717 3.149375 88.394902 
lradius 42.419309 
lwrist -10.213607 
lhand -7.861586 15.344414 
lfingers 0.000000 
lthumb 18.041991 44.527581 
rfemur -1.997458 0.090890 32.238240 
rtibia 19.638684 
rfoot -12.365992 -7.295820 
rtoes 7.104375 
lfemur -67.460798 5.760684 -15.711604 
ltibia 99.816863 
lfoot -25.698547 -6.623864 
ltoes -8.465413 
74
root -8.463791 17.936536 -17.583424 -2.053991 0.574529 -6.576075
lowerback 12.681056 1.812541 6.279480 
upperback 0.562558 3.578208 3.894802 
thorax -6.400252 1.622449 -0.054337 
lowerneck -13.104147 0.253555 1.647768 
upperneck 18.722209 0.879609 -4.220841 
head 7.975191 0.126885 -1.579096 
rclavicle 0.000000 0.000000 
rhumerus -26.986103 -18.215631 -77.893607 
rradius 27.335377 
rwrist -0.123132 
rhand -13.548731 -10.808653 
rfingers 0.000000 
rthumb 12.564166 -40.410797 
lclavicle 0.000000 0.000000 
lhumerus -38.623781 3.094341 88.389958 
lradius 42.518410 
lwrist -10.196877 
lhand -7.844626 15.376327 
lfingers 0.000000 
lthumb 18.058313 44.557954 
rfemur -1.459811 0.141522 32.341378 
rtibia 19.436502 
rfoot -12.504552 -7.280537 
rtoes 6.875936 
lfemur -68.405305 5.556610 -15.761827 
ltibia 98.900101 
lfoot -25.719644 -6.766977 
ltoes -8.307772 
75
root -8.463292 17.936208 -17.485627 -2.106920 0.425480 -6.633335
lowerback 12.803980 1.848369 6.391284 
upperback 0.603598 3.648510 3.873965 
thorax -6.414160 1.652897 -0.154596 
lowerneck -13.095701 0.272397 1.651589 
upperneck 18.696706 0.910893 -4.253856 
head 7.966409 0.139084 -1.587100 
rclavicle 0.000000 0.000000 
rhumerus -26.731644 -17.763049 -78.144540 
rradius 27.665362 
rwrist -0.447121 
rhand -13.560129 -10.830384 
rfingers 0.000000 
rthumb 12.553259 -40.433266 
lclavicle 0.000000 0.000000 
lhumerus -38.597621 3.050658 88.380036 
lradius 42.596642 
lwrist -10.164567 
lhand -7.828151 15.394860 
lfingers 0.000000 
lthumb 18.074222 44.575093 
rfemur -0.953624 0.186909 32.419446 
rtibia 19.275035 
rfoot -12.654538 -7.254870 
rtoes 6.635901 
lfemur -69.255116 5.333665 -15.800287 
ltibia 97.903667 
lfoot -25.678478 -6.937431 
ltoes -8.116366 
76
root -8.462544 17.934856 -17.389062 -2.159992 0.287058 -6.669630
lowerback 12.925685 1.878908 6.481929 
upperback 0.647294 3.708331 3.848155 
thorax -6.425562 1.678911 -0.246632 
lowerneck -13.093444 0.292384 1.658663 
upperneck 18.671584 0.944085 -4.292229 
head 7.958972 0.151823 -1.597255 
rclavicle 0.000000 0.000000 
rhumerus -26.478619 -17.345015 -78.383957 
rradius 27.980680 
rwrist -0.754800 
rhand -13.564829 -10.839283 
rfingers 0.000000 
rthumb 12.548729 -40.442499 
lclavicle 0.000000 0.000000 
lhumerus -38.568688 3.022407 88.363350 
lradius 42.647137 
lwrist -10.143001 
lhand -7.836001 15.404632 
lfingers 0.000000 
lthumb 18.066612 44.585544 
rfemur -0.395182 0.230283 32.471756 
rtibia 18.993455 
rfoot -12.732281 -7.227363 
rtoes 6.387830 
lfemur -69.986902 5.092469 -15.823185 
ltibia 96.811253 
lfoot -25.546932 -7.154328 
ltoes -7.940507 
77
root -8.461638 17.933136 -17.293880 -2.211569 0.154893 -6.691908
lowerback 13.042080 1.904652 6.556995 
upperback 0.693441 3.758775 3.819743 
thorax -6.432285 1.700971 -0.331008 
lowerneck -13.089579 0.311958 1.661109 
upperneck 18.642802 0.977981 -4.332681 
head 7.950092 0.164415 -1.607208 
rclavicle 0.000000 0.000000 
rhumerus -26.226260 -16.947905 -78.615245 
rradius 28.290848 
rwrist -1.043725 
rhand -13.540915 -10.862849 
rfingers 0.000000 
rthumb 12.571736 -40.464666 
lclavicle 0.000000 0.000000 
lhumerus -38.532913 3.003474 88.344412 
lradius 42.675181 
lwrist -10.124453 
lhand -7.856279 15.420562 
lfingers 0.000000 
lthumb 18.047124 44.603263 
rfemur 0.142879 0.270454 32.507220 
rtibia 18.738120 
rfoot -12.815176 -7.198267 
rtoes 6.134146 
lfemur -70.626865 4.844772 -15.833033 
ltibia 95.665573 
lfoot -25.361653 -7.415640 
ltoes -7.732919 
78
root -8.460674 17.930963 -17.200005 -2.264259 0.026003 -6.702723
lowerback 13.154266 1.927433 6.617733 
upperback 0.742766 3.802538 3.789829 
thorax -6.434117 1.720406 -0.407725 
lowerneck -13.080301 0.332788 1.662363 
upperneck 18.610176 1.013937 -4.374130 
head 7.939053 0.177903 -1.617021 
rclavicle 0.000000 0.000000 
rhumerus -25.977754 -16.569178 -78.838057 
rradius 28.594147 
rwrist -1.322214 
rhand -13.500653 -10.879859 
rfingers 0.000000 
rthumb 12.610535 -40.479267 
lclavicle 0.000000 0.000000 
lhumerus -38.493353 2.995308 88.321678 
lradius 42.681346 
lwrist -10.116119 
lhand -7.883638 15.420210 
lfingers 0.000000 
lthumb 18.020815 44.605363 
rfemur 0.662862 0.301983 32.529322 
rtibia 18.510710 
rfoot -12.899899 -7.166173 
rtoes 5.873036 
lfemur -71.175180 4.599454 -15.829458 
ltibia 94.478759 
lfoot -25.137552 -7.707843 
ltoes -7.522069 
79
root -8.459678 17.928279 -17.107326 -2.319125 -0.101275 -6.704820
lowerback 13.263107 1.948517 6.666490 
upperback 0.794868 3.841773 3.759125 
thorax -6.431836 1.738181 -0.477729 
lowerneck -13.063503 0.355413 1.665172 
upperneck 18.573519 1.052006 -4.416119 
head 7.925413 0.192586 -1.626992 
rclavicle 0.000000 0.000000 
rhumerus -25.734997 -16.208319 -79.052376 
rradius 28.888565 
rwrist -1.593886 
rhand -13.453649 -10.886105 
rfingers 0.000000 
rthumb 12.655873 -40.482671 
lclavicle 0.000000 0.000000 
lhumerus -38.452957 2.995931 88.294979 
lradius 42.667616 
lwrist -10.122094 
lhand -7.915329 15.396797 
lfingers 0.000000 
lthumb 17.990312 44.584801 
rfemur 1.167597 0.321943 32.541673 
rtibia 18.308667 
rfoot -12.983916 -7.132385 
rtoes 5.603713 
lfemur -71.635558 4.362935 -15.813102 
ltibia 93.261365 
lfoot -24.884902 -8.018232 
ltoes -7.315485 
80
root -8.458585 17.925024 -17.015800 -2.375674 -0.227214 -6.700902
lowerback 13.368833 1.968516 6.706238 
upperback 0.848182 3.877879 3.727981 
thorax -6.427077 1.754807 -0.542584 
lowerneck -13.037769 0.379201 1.671823 
upperneck 18.532050 1.090832 -4.458844 
head 7.908624 0.207990 -1.637704 
rclavicle 0.000000 0.000000 
rhumerus -25.499206 -15.868739 -79.257782 
rradius 29.170708 
rwrist -1.856341 
rhand -13.406444 -10.897422 
rfingers 0.000000 
rthumb 12.701373 -40.491119 
lclavicle 0.000000 0.000000 
lhumerus -38.414821 2.999551 88.265524 
lradius 42.636068 
lwrist -10.144650 
lhand -7.951457 15.359746 
lfingers 0.000000 
lthumb 17.955587 44.550928 
rfemur 1.657162 0.328739 32.547874 
rtibia 18.131010 
rfoot -13.067552 -7.101606 
rtoes 5.325717 
lfemur -72.008002 4.141003 -15.784655 
ltibia 92.021795 
lfoot -24.608029 -8.334868 
ltoes -7.095041 
